<svg version="1.1" id="Layer_12" xmlns="http://www.w3.org/2000/svg" xmlns:xlink="http://www.w3.org/1999/xlink" x="0" y="0" viewBox="0 0 24 24" style="enable-background:new 0 0 24 24" xml:space="preserve"><style>.st2{fill:#273240}.st236{fill:#5c99ff}</style><circle cx="12" cy="12" r="12" style="fill:#adffd8"/><defs><circle id="SVGID_00000008126901137237189080000005884718973246682554_" cx="12" cy="12" r="12"/></defs><clipPath id="SVGID_00000111905141615812745210000013473147287427556776_"><use xlink:href="#SVGID_00000008126901137237189080000005884718973246682554_" style="overflow:visible"/></clipPath><g style="clip-path:url(#SVGID_00000111905141615812745210000013473147287427556776_)"><circle cx="8.7" cy="8.8" r="11.7" style="fill:#00e676"/></g><g style="clip-path:url(#SVGID_00000111905141615812745210000013473147287427556776_)"><defs><circle id="SVGID_00000171697252142432922020000008339896728090619834_" cx="8.7" cy="8.8" r="11.7"/></defs><clipPath id="SVGID_00000062874565228230563730000015228920725017121940_"><use xlink:href="#SVGID_00000171697252142432922020000008339896728090619834_" style="overflow:visible"/></clipPath><g style="clip-path:url(#SVGID_00000062874565228230563730000015228920725017121940_)"><path class="st236" d="m9 1.4-.1.1H9v-.1c.1 0 0 0 0 0zM8.9.5c0-.1-.1-.1 0 0h-.2v.1s.1 0 .1-.1c.2.1.1 0 .1 0zM7.7.4h-.1v.1c.2.1.2 0 .1-.1.1.1 0 .1 0 0zM7.6 2.4c0-.1-.1-.1-.1-.1v.1h.1zM11.7.3l-.1-.1h-.1v.1c0 .1 0 .1.1.1s.1 0 .1-.1zM10.1 1.1s-.1 0 0 0c-.1 0-.1.1-.1.1h.2s0-.1-.1-.1c.1 0 0 0 0 0zM10.7.2h-.1v.1h.1c.1.1.1 0 0-.1.1 0 .1 0 0 0zM10.5 0c-.1 0-.1-.1 0 0l-.1-.1V0c0 .1.1.1.1 0zM12.9.9s-.1 0 0 0c-.1 0-.1.1-.1.1h.2l-.1-.1c.1 0 0 0 0 0zM5.9.8c-.1-.1-.2 0-.2 0h.2c0 .1 0 .1 0 0zM5.3 3.3l-.1.1h.1v-.1c.1.1.1 0 0 0zM6.2.3c.1.1.1.1 0 0 .1.1.2.1.2.1V.3c-.1-.1-.2-.1-.2 0zM6.1 1.4 6 1.3h-.1.1l.1.1c.1.1.1 0 0 0zM5.3 2.4h-.2v.1s.1 0 .1-.1c.2.1.2 0 .1 0zM4.5.5c-.1-.1-.2-.1-.2 0h.2zM6.4.8c-.1 0-.1 0-.1.1h.1c.1 0 .1 0 0-.1zM4.5.1c-.1 0-.1.1-.1.1 0 .1 0 .1.1.1s.1-.1 0-.2c.1 0 .1 0 0 0zM1.5.6l-.1.1v.1c.1 0 .1 0 .1-.1.1 0 .1 0 0-.1 0 .1 0 0 0 0zM4 0c.1 0 .1 0 .1-.1L4-.2s-.1.1 0 .1C3.9 0 4 0 4 0zM3.6 0v-.1c-.1 0-.1 0-.1.1v.1s0 .1.1.1V0c-.1.1-.1.1 0 0zM4.1 2.3H4v.1c.2 0 .2 0 .1-.1.1 0 .1 0 0 0zM3.9 4.2c0-.1-.1-.1-.1-.1v.1h.1zM8.1 2.4 8 2.3h-.1v.1c0 .1 0 .1.1.1s.1 0 .1-.1zM6.9 1.1C7 1 7 1 6.9 1h-.1v.1h.1zM5.4 0l-.1.1V0h.1c.1 0 .1 0 0 0zM5.3.9h.1V.8v.1c-.1-.1-.1-.1-.1 0zM5.8-.2h-.1v.1l.1.1.1-.1s0-.1-.1-.1zM6.5 3.1c-.1 0-.1 0 0 0-.1 0-.2.1-.2.1h.2c.1 0 .1-.1 0-.1zM5.9.3c0 .1 0 .1.1.1h.1V.3c-.2-.1-.2-.1-.2 0zM7.1 2.2l-.1.1v.1h.1s.1-.1 0-.1c.1 0 .1 0 0-.1zM5.8 1.7c0-.1 0-.1 0 0 0-.1-.1-.2-.1-.2v.1s0 .1.1.1zM4 1.7v-.1c-.1 0-.1.1-.1.1H4zM6.8 1.5v-.1c0 .1.1.1.1.1-.2.2-.1.2-.1 0zM5.3.9c-.1-.1-.1-.1 0 0-.1-.1-.2-.1-.2 0h.1c.1.1.1 0 .1 0z"/><path class="st236" d="M5.7.8h-.1V1s.1 0 .1-.1c0 .1.1 0 0-.1.1.1.1 0 0 0zM6.9 2h-.1v.1c.1.1.1 0 .1-.1zM3.6.6h-.1c0 .1 0 .1.1.1s.1-.1 0-.1zM4.2 1.1l-.1.1c.1 0 .1 0 .1-.1.2 0 .1 0 0 0zM8.8 1.9c-.1-.1-.1-.1 0 0-.2-.1-.2 0-.2 0 0 .1 0 .1.1.1s.1 0 .1-.1zM2.7.7l-.1.1c.2-.1.2-.1.1-.1zM3.1 1.4H3v.1c.1.1.2 0 .1-.1zM8.9.1l-.1.1c0 .1 0 .1.1.1.1-.1.1-.2 0-.2zM7.7.5h-.1c0 .2.1.2.1 0zM10.2.3c-.1 0-.1.1-.2.1v.1c.3-.1.2-.2.2-.2zM8.8.7c0-.1-.1-.1-.1-.1 0 .3 0 .2.1.1 0 .1 0 .1 0 0zM7.5 1.4l-.1-.1c.1.2.1.2.1.1zM7.2.1h-.1c-.1 0-.1 0-.2.1H7c.1.1.2 0 .2-.1zM7.6 0h.2v-.1l-.1-.1h-.1c0 .1-.1.1 0 .2-.1 0 0 0 0 0zM9 1.2s0-.1 0 0l-.1-.1v.1H9zM7.8 1.6h-.1c0 .1 0 .1.1.2.1-.1.1-.1 0-.2.1 0 .1 0 0 0zM9.3 3.1c-.1 0-.1 0 0 0-.2 0-.2.1-.2.1h.2c.1 0 .1 0 0-.1zM9.6 1.3s-.1 0 0 0h-.1c.2.1.1 0 .1 0zM8.1.3c-.1-.1-.2 0-.2 0v.1H8c.1 0 .1 0 .1-.1zM2.4.5c.1-.1.1-.1.1-.2h-.1v.2c-.1 0-.1 0 0 0zM2.3 2.6c-.1-.1-.2-.1-.2 0h.2zM4.8 1.5c-.1 0-.1.1-.1.1v.1h.1v-.1c.1-.1 0-.1 0-.1zM2.9 1.5c-.1.1-.1.2 0 .2 0 0 .1.1.2 0v-.1l-.2-.1zM5.8 4.9V5h.1v-.2c0 .1-.1.1-.1.1zM1.9 1.5h.2c-.2-.2-.2-.1-.2 0zM4 2.4h.1v-.1c0-.1 0-.1-.1-.1s-.1.1 0 .2zM2.4.7h.1V.6c0-.1-.1-.1-.1-.1v.2zM4.8 3.1h-.1v.1h.2c0-.1 0-.1-.1-.1zM5.1 4.4c-.1 0-.1 0 0 0-.1 0-.1.1-.1.1l.1.1v-.1c.1-.1 0-.1 0-.1zM3.1 3.7l-.1.1v.1h.1v-.2c0 .1 0 .1 0 0zM2.2 2.8c0 .1 0 .1 0 0V3v-.2zM4.5 2.5v.2h.1c0-.2 0-.2-.1-.2zM2.6 3.4h-.1s-.1.1 0 .2h.1v-.2zM.7 1.5l-.1-.1v.1h.1zM2.8 3.5v.2h.1c0-.1 0-.1-.1-.1v-.1zM0 1.9h.1v-.2c-.2.1-.2.1-.1.2zM1.7 2v.1h.1s.1-.1 0-.2l-.1.1c0-.1 0-.1 0 0zM3 2.8s0-.1 0 0V2.5h-.1v.2l.1.1zM1.3 6.2v.2h.1v-.2h-.1zM2.4 3.9v-.2h-.1c0 .1 0 .1.1.1-.1.1 0 .1 0 .1zM1.9 3.2c-.1.1-.1.1-.1.2H2v-.1c0-.1-.1-.1-.1-.1zM2 3.7h-.1v.1s0 .1.1.1h.1v-.1L2 3.7c.1 0 .1 0 0 0zM2.1 4.2H2c-.1.1 0 .1 0 .2l.1.1h.1l-.1-.3c.1.1 0 .1 0 0zM4.2 5.2v.1s0 .1.1.1c0 0 0-.1-.1-.1.1-.1.1-.1 0-.1zM.2 2.3c.1 0 .1 0 0 0h.1c-.1-.1-.1 0-.2 0h.1zM.4 3.8v.1c0 .1.1.1.1.1v-.1c0-.1 0-.1-.1-.1zM1.1 3.3h.1v-.1s0-.1-.1-.1v.2zM2.7 1h.1V.9L2.7.8c-.1.1-.1.2 0 .2zM5.6 6.6h-.2s0 .1.1.1h.1v-.1zM1.2 2.3v.1s.1-.1 0-.1c.1 0 0 0 0 0zM2.6 1.1c-.1 0-.1 0 0 0l-.1.1v.1c0 .1.1.1.2.1v-.1c0-.2 0-.2-.1-.2zM6.9 2.2h-.1v.2h.1v-.2c0 .1 0 .1 0 0zM5.1 2.3c0-.1-.1-.1-.1-.1h-.1v.1c.1.1.1.1.2 0 0 .1 0 .1 0 0zM3.3 2.7v.1-.1zM3.9 3.4c0-.1.1-.1.1-.1v-.1h.1c-.3.2-.3.2-.2.2zM1 2.6c0-.1-.1-.1-.2-.1h.1c.1.2.1.2.1.1zM2.6 1.8s-.1.1 0 .2h.1c.1-.2.1-.2-.1-.2zM3.4 2.3c-.1.1-.1.1-.1.2l.1.1h.1v-.1c0-.2-.1-.2-.1-.2zM3 2.1v.1c0 .1.1.1.2 0 0 0 0-.1-.1-.1 0-.1-.1-.1-.1 0zM2.2 1.9h.1s.1-.1 0-.2h-.1v.2zM6.3 3.9s0 .1 0 0v.2h.1V4c.1-.1 0-.1-.1-.1.1 0 0 0 0 0zM1.5 0l-.1.1v.1h.1c.1-.1.1-.1 0-.2z"/><path class="st236" d="m3.1 1.6-.1.1s0 .1.1.1v-.1s0-.1-.1-.1h.1zM3.8 2.6h.1v-.1s0-.1-.1-.1c-.1.1-.1.2 0 .2zM2.1 1l.1-.1V1H2h.1zM.7 5.3H.6s.1.1.1 0c.1.1.1.1 0 0zM6.1 2.9 6 3l.1.1h.1V3c0-.2-.1-.2-.1-.1zM4.8 3.5h-.2s0 .1.1.1h.2l-.1-.1zM1.8 2.9c0-.1 0-.2-.1-.2h-.1v.1h.1c0 .2.1.1.1.1zM3.7 5v-.1.1zM-.1.9c0 .1.1.1 0 0 .1.1.2.1.2 0C.1.9.1.8 0 .8l-.1.1zM3 .3v.2h.2V.4L3 .3zM5.4 2.6h-.1c.1.1.1 0 .2 0-.1.2-.1.2-.1 0zM1.5.8V.6h-.1s0 .1.1.1c-.1.1 0 .1 0 .1zM.4.1h.1C.6.1.6 0 .5-.1.3.1.3.1.4.1zM3.9 3.4h-.1s-.1.1 0 .1h.1v-.1zM1.5 1h-.1c.1.1.1.1.1 0zM4.1 3l-.1.1v.1h.1v-.1c.1 0 .1 0 0-.1.1 0 0 0 0 0zM5.8 2.9h-.1V3c.2 0 .2 0 .1-.1zM2.6 4.5l-.1.2c.1.1.1 0 .2 0 0-.2-.1-.2-.1-.2zM4.2.8v.1s0 .1.1.1h.1c0-.1 0-.1-.1-.1 0-.1-.1-.1-.1-.1zM3.3 4.4c0 .1 0 .1.1.1v-.2c.1 0 0 0-.1.1zM6.9 1.4h-.1s-.1.1 0 .2c0 0 .1.1.2 0l-.1-.2zM1.3 3.8h.1v-.1c-.2 0-.2 0-.1.1zM-.1 4.8v.1-.2c.2 0 .1 0 0 .1zM2.1 5.3v.1h.1c0-.2 0-.2-.1-.1zM1.1 1.6l.1.1v-.2h-.1v.1zM3 5.5h-.1.1c.1.1 0 0 0 0zM1.3 4.2h-.1v.2l.1-.2zM0 3.2h.1H0v.1-.1zM5.6.1v.1s.1.1.1 0 0-.1-.1-.1zM3.8.1l.1-.1v-.1s-.1-.1-.2 0c0 .1 0 .1.1.2zM5.1 1.3l-.1.1c.2.1.2 0 .1-.1zM4.1.2c-.1.1-.1.1 0 0L4 .3v.1s0 .1.1.1c.1-.1.2-.2 0-.3.1 0 .1 0 0 0zM4.2.1c0-.1 0-.1-.1-.1H4l.2.1zM6 .6h-.2c.2.2.2.1.2 0 0 .1 0 0 0 0zM5.1 0 5-.1h-.1V0H5c0 .1 0 .1.1 0zM2.6.1c.1 0 .1-.1.1-.1v-.1.1c-.2.1-.2.1-.1.1zM3.3 1h.1V.9s0-.1-.1-.1V1c0-.1 0-.1 0 0zM4.1 1.5s-.1 0 0 0L4 1.4h-.1l.1.1c0 .2 0 .1.1 0 0 .1 0 .1 0 0zM5.7 2h-.1c.2.1.1.1.1 0zM3.7 1.7s0-.1-.1-.1h-.1v.1c0 .1.1.1.2 0zM3.7 1.3v-.1h-.1v.1h.1c-.1.1-.1.1 0 0zM3.8 1.1c.1 0 .1 0 0 0L4 1s0-.1-.1-.1V1l-.1.1zM3.5 1.2l.1-.1s0-.1-.1-.1h-.1v.1l.1.1c-.1 0-.1 0 0 0zM2.9.7V.6h-.1v.1h.1c-.1 0 0 0 0 0zM4.5 1.5h-.1c-.1.1-.1.1 0 .2v-.1c.2 0 .2-.1.1-.1zM4.6 1.1c.2 0 .2-.1.2-.1s0-.1-.1-.1h-.1V1c-.1 0-.1.1 0 .1zM6.5.7c-.1 0-.1 0 0 0h-.1v.1l.1-.1zM6 1.9V2c.1.1.1.1.2 0 0 0 0-.1-.1-.1H6zM8.1 1.7c0 .1 0 .1 0 0v.2-.1c.2-.1.1-.1 0-.1.1 0 0 0 0 0zM6.9.4v.1H7c0-.2-.1-.2-.1-.1zM3.9.7V.6v.1c-.1.1 0 0 0 0zM5.2.9h-.1v.2V1c.2 0 .2 0 .1-.1zM1.7 5.4c0-.1-.1-.1-.1-.1h-.1v.1h.2c0 .1 0 .1 0 0zM3.3 6.8h-.1v.1h.1c.1.1.1 0 0-.1.1 0 0 0 0 0zM2.4 2.6l.1-.1v-.1.1c-.2.1-.1.1-.1.1zM2.1 2.3c-.1-.1-.1-.2-.2-.2l.2.2c-.1 0-.1 0 0 0zM2.7 3h-.1v.2c.2-.1.2-.1.1-.2zM4 4.2v.2h.1v-.2s0-.1-.1 0zM1.2 5.7c.1 0 .1-.1 0 0v-.2H1v.1l.2.1zM2.2 5.5H2c.3.1.3.1.2 0zM0 5h-.1v.1c0 .1.1.1.1.1.1 0 .1-.1 0-.2zM1.8 6.4c-.1 0-.1 0-.1.1v.1c0 .1.1.1.1.1.1-.2.2-.2 0-.3zM2.2 8.3v.1h.1s0-.1-.1-.1c.1-.1.1 0 0 0zM.7 3.5h.1v-.1l-.1.1c-.1-.1-.1 0 0 0zM1.7 4.2V4v.2zM4.2 8.5h-.1c0 .1 0 .1.1.1 0 .1.1 0 0-.1z"/><path class="st236" d="M1.2 3.7h.1v-.2h-.1v.2zM3.4 5.3l.1.1v-.1h-.1zM1 3.7c0-.1 0-.1 0 0v-.2H.9c0 .1 0 .1.1.1-.1.1 0 .1 0 .1zM4 4.7h-.1v.1s0 .1.1.1.1-.1 0-.2zM2.4 5l-.1-.1s-.1 0-.1.1v.2c.1-.1.2-.1.2-.2zM.9 4.4c0 .1 0 .1 0 0 .1.1.1.1 0 0V4.7H1v-.2.1l-.1-.2zM2 .7c0-.1 0-.1-.1-.2h-.1v.2c0 .1.1.1.2 0-.1.1 0 0 0 0zM1.3 3.3v.2h.1c0-.1 0-.1-.1-.1.1-.2 0-.2 0-.1zM1.9 3.8c.1-.1.1-.2.1-.2h-.2v.1c0 .1.1.1.1.1zM1.7 3.4h.1v-.1l-.1-.1h-.1v.1l.1.1c-.1-.1-.1-.1 0 0zM1.5 2.8l.1.1v-.2h-.2l.1.1zM4.9 3.6v.1-.1zM3.7 4.3s0 .1 0 0h-.1.2-.1zM3.2 3l.1-.1v-.1h-.2v.1c0 .1.1.1.1.1zM2.7 3.6h-.1v.1s0 .1.1.1v-.2zM1.6 6.1h-.1v.1l.1.1v-.2zM4.9 4.2zM6.3 3.9h.2l-.1-.1c-.1 0-.1.1-.1.1zM-.2 9.8v.1H0c0-.1 0-.1-.1-.1h-.1zM6 5.2h-.1v.2h.2c0-.2 0-.2-.1-.2zM2.8 4.5v-.1.1c-.1.1-.1.1 0 0zM1.6 6c.1 0 .1 0 0 0 .1-.1.1-.1.1-.2v-.1s-.1-.1-.2-.1v.1c0 .3 0 .3.1.3zM.6 4.5v-.1l.1.1H.6c0 .1 0 0 0 0zM-.1 4c0 .1-.1.1 0 .1 0 0 0 .1.1.1h-.1C0 4 0 4-.1 4zM2.9 4.2c.1.1.1.1.2.1H3c-.1-.2-.1-.1-.1-.1zM1.4 5.3c.1 0 .1 0 0 0 0 0 .1-.1 0-.2 0 0-.1 0-.1.1s0 .2.1.1zM.6 4.9v-.1H.4v.1c.1.1.2.1.2 0zM1.1 5.1 1 5H.9s0 .1.1.1c0 .1 0 .1.1 0-.1 0-.1 0 0 0zM1.8 5.1h-.1v.2l.1-.2zM2.9 6.9c0-.1 0-.1 0 0 .1-.1.1-.2.1-.2s0-.1-.1-.1h-.1c0 .2 0 .2.1.3zM3.4 6.8h-.1V7h.1v-.2zM1 5.6v-.1s0-.1-.1-.1v.1s0 .1.1.1zM2.7 7.7c0-.1 0-.1-.1-.1v.2l.1-.1zM3.3 9.9h-.1v.1l.1.1V10c.1-.1.1-.1 0-.1zM.2 4.7H.1v.1s0 .1.1.1v-.2zM1.6 8.5v-.2.2c0 .1 0 0 0 0zM2.1 6v.1V6s0-.1-.1-.1l.1.1zM3.4 8.2v-.1h-.1c0 .2.1.2.1.1zM2.7 1.5l.1-.1h-.1v.1c-.1-.1-.1 0 0 0zM3.7 2.9V3h.1s.1 0 .1-.1h-.2zM5.8 7.1v.2-.2c.2 0 .1 0 0 0zM3.8 7.3h-.1s0 .1.1.1.1 0 0-.1zM2.6 9.1h-.1.2-.1zM2.1 4.1c0 .1.1.2.1.2h.1v-.1c-.1-.2-.1-.2-.2-.1 0-.1 0-.1 0 0zM-.2 2.4c0 .1 0 .1.1.1l.1-.2-.2.1zM4.7 5.6h-.1l.1.1h.1v-.1c0 .1 0 0-.1 0zM4.3 5.7c0-.1-.1-.1 0 0h-.2s0 .1.1.1l.1-.1zM1.4 6.9v-.2h-.2v.1l.2.1zM2.7 6.1c0 .1 0 .2.1.2h.1l-.1-.1c0-.1 0-.1-.1-.1zM4 6.5h-.1v.2c.2-.1.2-.1.1-.2zM-.1 3.9H0v-.1l-.1.1zM2.7 5.9h.2c-.3-.1-.2-.1-.2 0zM4.7 4.6h.2-.2c-.1-.1-.1 0 0 0zM4.9 6.9c-.1 0-.1 0 0 0h-.1s0 .1.1.1.1 0 0-.1zM3.6.2V.1h-.1s-.1 0-.1.1c.1.1.1.1.2 0 0 .1 0 0 0 0zM1 2.6v-.1H.8c.1.1.1.1.2.1zM1.2 7.7c.1 0 .1 0 0 0 0-.1 0-.1-.1-.1H1v.1h.2zM.1 6.6v-.1L0 6.4h-.1s0 .1.1.1c0 .1.1.1.1.1zM.3 2.9c0-.1 0-.1-.1-.1V3l.1-.1zM2.4 3.1h-.1v.1c.2 0 .2 0 .1-.1zM3.5 1.9v-.1.2c-.1 0 0 0 0-.1zM1.3 1.8v-.1h-.1c0 .2.1.2.1.1zM3 5.2h-.1v.1s0 .1.1.1v-.2zM.5 1.8l.1-.1H.5c-.2 0-.1.1 0 .1zM5.1 2.2c.1 0 .1 0 .1-.1V2h-.1v.2c0-.1 0 0 0 0zM2.4 2.7h.1v-.2l-.1.2c-.1 0-.1 0 0 0zM3.8 3.4l-.1.1h.1v-.1zM.3 8.1v.1c.1.1.1 0 .2 0-.1-.1-.1-.1-.2-.1zM.6 7.3c-.1 0-.1.1 0 .1h.2l-.2-.1zM.3 7.2c.1-.1.1-.1 0 0l.1-.1V7s0-.1-.1-.1c-.2.1-.2.2 0 .3-.1-.1-.1 0 0 0zM2.6 7.1h-.1.1s.1 0 .1-.1c0 .3 0 .2-.1.1zM.2 7.3c0 .1.1.1.1.1h.1l-.2-.1zM1.2 9h-.1v.1s0 .1.1.1c.1-.1.1-.2 0-.2zM1.8 7s-.1.1 0 .1v.1c.1-.2.1-.3 0-.2zM.9 6.3H.8v.1l.1.1c.1-.1.1-.1 0-.2.1.1.1 0 0 0zM.1 5.9l.1.1h.1v-.1H.2c0-.2-.1-.2-.1 0 0-.1 0-.1 0 0zM.6 8.7H.4c0 .1.1.1.1.1.2 0 .2 0 .1-.1zM.4 5.6s0 .1.1.1h.1s0-.1-.1-.1H.4zM1.9 7.6h-.1v.1s0 .1.1.1v-.2c.1.1 0 .1 0 0zM.5 6v.1V6c.1-.1 0-.1 0 0zM.4 6.2c-.1.1-.1.1 0 0-.1.1-.1.2-.1.2s0 .1.1.1V6.2zM.7 6v.1s0 .1.1.1h.1L.7 6c.1 0 .1 0 0 0zM1.4 6.5v.1-.1c.1-.1 0-.1 0 0zM.9 8.1H.8v.1H1v-.1h.1H1V8H.9zM0 8.5v-.1l.1.1H0zM.5 6.6v.1-.1c0-.1-.1 0 0 0zM1.7 10.2c0 .1.1.1.1.1h.1l-.2-.1zM1.7 1.6c0 .1.1.1.1.1h.1v-.1h-.2zM-.1.5H0V.4h-.1c-.1 0-.1 0 0 .1-.1 0-.1 0 0 0zM1.5 4.5v.1s0 .1.1.1v-.1c0-.1 0-.1-.1-.1zM1.9 4.8c.1.1.1.1.2.1l-.2-.1c0-.1 0-.1 0 0zM1.1 4.1h.1V4s0-.1-.1-.1c-.1.1 0 .2 0 .2zM.5 9.4v-.1l-.1-.1c-.1 0-.1 0-.1.1v.1h.2zM1.4 8.9c-.1 0-.1 0-.1.1.2 0 .2-.1.1-.1zM1.3 9.8c-.1.1-.1.1 0 0-.1.1-.1.2-.1.2h.1v-.2zM2.3 11.5v.1h.1c.1-.1 0-.2-.1-.1 0-.1 0 0 0 0zM.4 7.8c0-.1-.1-.1-.1-.1l.1.1zM4.2 11.1c-.1 0-.1 0 0 0l-.1.1.1.1c.1-.1.1-.2 0-.2zM-.2 7.5h.1c0-.1 0-.1-.1-.1l-.1.1c.1-.1.1-.1.1 0zM2.4 8.3h.1v-.1h-.1v.1z"/><path class="st236" d="m2.8 7.5-.1.1v.1l.1.1c.1-.2.1-.2 0-.3zM1.4 8.3l-.2-.1s-.1 0-.1.1 0 .1.1.1.2 0 .2-.1zM-.2 8.3s.1 0 0 0l.1.1s0 .1.1.1c0 0 .1 0 .1-.1L0 8.3v.1c-.2-.2-.2-.2-.2-.1zM.5 7.4c.1-.1 0-.2 0-.2H.4l-.1.1s0 .1.1.1h.1zM.2 7l.1-.1H.2s-.1 0-.1.1v.1c0-.1 0-.1.1-.1zM3.3 6.2c0 .1 0 .1.1.1l-.1-.1zM2.4 7.3l-.1.1c.1 0 .1 0 .1-.1zM1.5 6.2v-.1c-.1-.2-.2-.1-.2-.1v.1c.1.1.2.1.2.1zM1.2 6.9c-.1 0-.1 0 0 0-.1.1-.1.1-.1.2h.1v-.2zM.9 9.6c-.1 0-.1 0-.1.1v.1h.1c.1-.1.1-.1 0-.2zM3.5 6.8zM4.8 6h.1-.1c-.1 0-.1 0 0 0zM.5 13.7v.1h.1l.1-.1c0-.1-.1-.1-.1-.1l-.1.1zM4.8 7.3c-.1.1-.1.2 0 .2s.1 0 .1-.1c0 0 0-.1-.1-.1zM1.6 7.8v-.1.1c-.1 0-.1 0 0 0zM1 9.5v-.1s0-.1-.1-.1H.7v.1c.2.2.2.2.3.1zM1.6 7.5c.1 0 .2 0 .2-.1v.1c-.3-.1-.3-.1-.2 0zM.6 9c0-.1 0-.1 0 0v-.2l-.1.1c-.1.1 0 .1.1.1zM.1 8.9v-.1c-.1 0-.1 0-.2.1 0 .1.1.1.1.1.1 0 .1 0 .1-.1zM.9 8.6c-.1.1-.1.1 0 0-.1.1-.1.2 0 .2v-.2zM2.4 9.9c.1 0 .1 0 0 0 .1-.1 0-.1 0-.2l-.1-.1s-.1 0-.1.1c.1.2.1.3.2.2zM2.9 9.7c0 .1 0 .1 0 0-.1.1-.1.2 0 .2l.1-.1v-.1h-.1zM.2 9.3v-.1s-.1 0-.1-.1v.1s.1 0 .1.1zM2.5 10.8c0-.1 0-.1 0 0l-.1-.1v.1h.1c-.1.1 0 .1 0 0zM3.8 12.7c-.1.1-.1.2 0 .2h.1v-.1c.1-.1 0-.2-.1-.1zM1.8 11.9c0-.1 0-.1-.1-.2l.1.2zM1.4 9.4v.1-.1l-.1-.1.1.1zM3.4 11c0-.1 0-.1-.1-.1 0 0-.1 0-.1.1.1.1.2.1.2 0zM.5 4.9l.1-.1H.5c-.1.1-.1.1 0 .1zM1.9 5.9V6h.2s.1 0 .1-.1h-.3zM5.3 9.2v.1c0-.1 0-.1-.1-.1.2-.1.1-.1.1 0zM3.5 10.1c-.1 0-.1 0 0 0l-.1.1h.1c.1-.1.1-.1 0-.1zM2.9 12.1s-.1 0 0 0l-.1.1c.1 0 .1 0 .1-.1zM.8 7.6l.1.1s.1 0 .1-.1v-.1c-.1 0-.1 0-.2.1 0-.1 0-.1 0 0zM3.7 8.1s0 .1 0 0l-.1.1h.1s.1 0 .1-.1V8c.1.2.1.2-.1.1zM3.4 8.4h-.1s-.1 0-.1.1c0 0 .1 0 .1.1l.1-.2zM1 10.4c0-.1 0-.1-.1-.2H.8l-.1.1v.1H1zM2.1 9.3c0 .1.1.2.1.2s.1 0 .1-.1c-.1-.2-.1-.2-.2-.1 0-.1 0-.1 0 0zM3.4 9.3c-.1 0-.1 0 0 0-.1.1-.1.2 0 .2.1-.2.1-.2 0-.2zM1.9 9h.2-.2zM3.4 7.2c.1 0 .1 0 .1-.1h-.1c-.1-.1-.1-.1-.1 0s0 .1.1.1zM4.3 9.3s-.1 0 0 0l-.1.1h.1c.1 0 .1 0 0-.1zM1 3.4v-.1H.9s-.1 0-.1.1c.1.1.1.1.2 0-.1.1 0 0 0 0zM1.2 11.3s0-.1 0 0c0-.1-.1-.1-.1-.1s-.1 0-.1.1v.1l.2-.1zM.8 6.6c-.1.1-.1.1-.1.2.2-.2.2-.2.1-.2zM1.4 5l-.1-.1V5l.1.1V5zM2 8.3h-.1v.1l.1.1v-.1c.1 0 .1 0 0-.1zM3.1 4.8s.1 0 0 0c.1-.1.1-.2 0-.2s-.1 0-.2.1c.1.1.1.1.2.1zM.6 6.2c.1-.1.1-.2 0-.2-.1.2-.1.2 0 .2zM2.2 6.4l-.1.1v-.2l.1.1zM.4 12v.1c.1 0 .1 0 .2-.1-.1-.1-.1-.1-.2 0 0-.1 0 0 0 0zM.4 11v.1h.1c.1 0 .1 0 .1-.1H.4zM.1 11.1V10.8H0c-.1.2-.1.2.1.3-.1 0-.1 0 0 0zM2.2 10.3s-.1 0 0 0l-.1.1h.1s.1 0 .1-.1c.1.1 0 0-.1 0zM0 11.2c0 .1.1.1.1.1s.1 0 .1-.1H0zM1.5 12.5c-.1 0-.1 0 0 0-.1.1-.1.1-.1.2l.1.1c.2-.2.2-.3 0-.3zM1.4 10.4v.1h.1c0-.2 0-.2-.1-.1zM.4 10c-.1 0-.1.1-.1.1v.1h.1c.1 0 .1-.1 0-.2.1.1 0 0 0 0zM.9 12.4c-.1 0-.1 0-.1.1s.1.1.2 0l-.1-.1zM1.7 11c-.1.1-.1.1 0 0-.1.1-.1.2-.1.2l.1.1V11c.1 0 .1 0 0 0zM-.1 9.9c0 .1 0 .1.1.1l-.1-.1c0-.1 0-.1 0 0zM-.1 10.2c-.1 0-.1 0 0 0-.1.1-.1.1 0 .2l.1.1v-.1l-.1-.2zM.1 9.9v.1l.1.1s.1 0 .1-.1l-.2-.1c.1-.1.1-.1 0 0zM.9 10c0 .1 0 .1.1.1L.9 10zM.9 11.7v.2h.2v-.2H.9zM.2 12.4v-.1c-.1.2-.1.2 0 .1 0 .1 0 .1 0 0zM.1 10.5l.1.1v-.1c-.2-.1-.2 0-.1 0zM2.4 13.5h.1l.1-.1-.2.1zM.4 8.2v.1s.1 0 .1.1v-.1c0-.2-.1-.2-.1-.1zM.8 8.3H1 .8c0-.1 0-.1 0 0zM-.1 7.9l.1-.1h-.1c-.1.1-.1.1 0 .1zM.1 12.5v.1s0 .1.1.1.1 0 .1-.1v-.1H.1zM4.1 14.5v.1h.1v-.1l-.1-.1c.1 0 0 .1 0 .1z"/><path class="st236" d="M1.5 12.9c.1 0 .1 0 .1-.1v-.1l-.1-.1c-.2.2-.2.3 0 .3zM2.5 13.2c0 .1 0 .1 0 0-.1.1-.1.1 0 0-.1.1-.1.2-.1.2s.1 0 .1-.1h.1c0-.1-.1-.1-.1-.1zM3.2 14.3c-.1.1-.1.2 0 .2h.1v-.1c0-.1 0-.1-.1-.1zM1.2 14.5l-.1.1v.1l.1-.2c0 .1 0 .1 0 0zM0 14.1c0 .1 0 .1.1.2l-.1-.2zM1.9 12.9c0 .1.1.1.1.1v-.1c.1-.1 0-.1-.1 0 .1-.1.1-.1 0 0zM.6 14.5H.5v.2s.1 0 .1-.1v-.1zM.8 14.5c0 .1 0 .1.1.2H1l-.1-.1c-.1-.2-.1-.2-.1-.1zM.7 13.7c-.1-.1-.1-.1 0 0l-.1-.1v-.1s-.1 0-.1.1v.1-.1c.2.2.2.1.2.1zM.5 17.5c0 .1.1.1.1.1h.1c0-.1 0-.1-.1-.1H.5zM.6 14.9c0-.1 0-.1-.1-.1l-.1.1.1.1s.1 0 .1-.1zM-.2 14.5c-.1.1-.1.2 0 .2h.1s.1 0 .1-.1c0 0 0-.1-.1-.1h-.1zM.2 14.9l-.1.1h.1s.1 0 .1-.1v-.1c0 .1-.1.1-.1.1zM.5 15.4H.4c0 .1 0 .1.1.2h.2l-.2-.2zM2.8 15.4v.1h.1c.1-.1.1-.1-.1-.1.1 0 0 0 0 0zM.5 8.2v-.1H.4l-.1.1c0 .1 0 .1.1.1s.1 0 .1-.1zM4.6 16.2c-.1 0-.1 0-.1.1l.1.1v-.2zM4 11.6l-.1.1v.1l.1.1c.1 0 .1 0 .1-.1l-.1-.2c.1.1.1 0 0 0zM2.4 12.4c-.1-.1-.1-.1-.2-.1 0 0-.1 0-.1.1l.1.1c.2 0 .2 0 .2-.1 0 .1 0 .1 0 0zM.9 13.5v.1l-.1-.1h.1c.1 0 .1 0 0 0zM1.8 13.9v-.1s0-.1-.1-.1h.1c-.1.2-.1.2 0 .2zM0 12.9v.2l.1-.1c0-.1 0-.1-.1-.1zM.9 13.1v.1H1s.1 0 .1-.1V13c-.1.1-.2.1-.2.1zM.4 13v.1h.2L.5 13c0-.1-.1 0-.1 0zM4.2 13.4c0 .1.1.2.1.2s.1 0 .1-.1v-.1c-.1-.1-.1-.1-.2 0 0-.1 0-.1 0 0zM.4 12.6s-.1 0 0 0v.1s0 .1.1.1v-.1s0-.1-.1-.1zM1.3 13.2h.1v-.1l-.1-.1v.2zM1.2 8.5c.1.1.1.1 0 0v.1-.1l-.1-.1c.2 0 .2 0 .1.1zM3.6 12.5v.1h.1s.1 0 .1-.1c0 0 0-.1-.1-.1l-.1.1zM2.7 13.6c-.1.1-.1.1 0 0-.1 0-.2 0-.2.1h.2s.1 0 .1-.1h-.1zM2.2 15.4s0-.1 0 0l-.1-.1c0 .1 0 .1.1.1zM2.8 12.6h-.1c.1 0 .1 0 .1-.1.1.2.1.2 0 .1zM1.8 13.9l-.2.1v.1-.1c.2 0 .2-.1.2-.1zM1.8 13.5v.1h.1v-.1h-.1c.1 0 0 0 0 0zM3.3 12.7c-.1 0-.1 0-.1.1l.1.1c.1-.1.1-.2 0-.2zM1 15.5v.1c.1 0 .1 0 .1-.1s0-.1-.1 0zM1 11.4v.1h.1s.1 0 .1-.1l-.1-.1c-.1 0-.1.1-.1.1zM1.6 15c.1.1.1.1 0 0l.1.1c0-.1 0-.1-.1-.2.1 0 .1 0 0 .1zM3.7 10.8c-.1.1-.1.1 0 0-.2.2-.1.2-.1.2.1 0 .1 0 .2-.1l-.1-.1c.1.1 0 0 0 0zM.9 16.3v.1c.1-.2 0-.1 0-.1zM1.7 16.2l-.1.1h.1c.2-.1.1-.2 0-.1zM.5 9.9v-.1H.3c.1.2.1.2.2.1-.1.1 0 .1 0 0zM1.9 7.3c0 .1-.1.1 0 0-.1.1-.1.1 0 0l-.1.1h.1s.1 0 .1-.1v-.1l-.1.1zM2 10.2v.1h.1c0-.2-.1-.2-.1-.1zM.4 10.9v-.1H.3c-.1 0-.1 0-.2.1h.3zM2.1 11.5c-.1 0-.1 0 0 0l-.1.1c.2 0 .2 0 .1-.1zM.7 10.9c-.1.1-.1.1 0 0l-.1.1v.1l.1.1c0-.1 0-.1-.1-.1.2-.2.1-.2.1-.2zM.7 10.8c0-.1-.1-.1-.1-.1H.5l.2.1zM2.5 9.1v.2h.1c0-.3-.1-.3-.1-.2zM2.6 10.5c-.1 0-.1 0-.1.1.1 0 .1 0 .1-.1zM1.4 10.3c-.1-.1-.1 0-.1 0s-.1 0-.1.1l.1.1v-.1c.2 0 .2 0 .1-.1zM1.7 9.3h-.1v.1c.1.1.1.1.1-.1 0 .1 0 .1 0 0zM.3 11.9c.1 0 .1 0 .1-.1v-.1s-.1-.1-.1 0c-.1 0-.1.1 0 .2-.1-.1-.1 0 0 0zM1.2 12.1c-.1 0-.1 0 0 0l-.1-.1-.1.1v.1h.1c0 .1.1 0 .1-.1 0 .1 0 0 0 0zM2.8 11.9l-.1.1c.3 0 .2-.1.1-.1zM0 9.4c.1 0 .1 0 .2-.1 0-.1-.1-.1-.2-.1-.1.2 0 .2 0 .2zM.9 12.4l-.1-.1s-.1 0-.1.1c0 0 0 .1.1.1h.1v-.1zM.7 12.1V12v.1c0 .1 0 0 0 0zM.8 11.8s0-.1 0 0c.1-.1.1-.1.1-.2 0 0 0-.1-.1-.1V11.8zM.5 12.1V12l-.1-.1s-.1 0-.1.1l.2.1c-.1 0 0 0 0 0zM1.6 11.9l-.2.1c0 .1 0 .1.1.2v-.1c.2-.1.1-.2.1-.2zM1.5 11.5c.1-.1.1-.1.1-.2l-.1-.1s-.1 0-.1.1v.1c0 .1 0 .1.1.1zM3.1 10.4c-.1 0-.1 0 0 0l-.1.1.1.1v-.2zM3.1 11.7v.1h.2c0-.2-.1-.2-.2-.1 0-.1 0-.1 0 0zM4.9 10.7c0 .1.1.2.1.2v-.1c.1-.2 0-.2-.1-.1.1-.1 0-.1 0 0zM.7 9.5v.1c.1-.1.1-.2 0-.1zM3.3 9.9v.1c.1-.2 0-.1 0-.1zM.6 11.4l-.1-.1v.1c.1.1.2.1.1 0zM2 11.1c-.1.1-.1.1-.1.2 0 0 0 .1.1.1v-.1c.1-.2 0-.2 0-.2zM.6 16.6l-.1-.1H.4v.1h.2c0 .1 0 .1 0 0zM2.6 17.2c-.1.1-.1.2-.1.2s.1 0 .1-.1v-.1c.1.1 0 0 0 0zM.1 13.7l.1-.1s-.1 0-.1-.1v.1c-.1.2-.1.2 0 .1zM.5 14l-.1.1v.1l.1.1c.2-.2.1-.2 0-.3zM2.2 14.6c0 .1.1.1.1.1h.1v-.1l-.1-.1s-.1 0-.1.1zM1.2 16.2v.1s0 .1.1.1h.2v-.1l-.3-.1zM5.1 18.6v.1h.1v-.1s0-.1-.1-.1c.1 0 0 0 0 .1z"/><path class="st236" d="M.3 16.6c.1 0 .1 0 .2-.1-.3 0-.3 0-.2.1zM2.6 16.7c.1 0 .1 0 .1-.1v-.1l-.1-.1c-.1.2-.1.3 0 .3zM.6 15.7c0-.1 0-.1 0 0 .1-.1.1-.1.1-.2s-.1-.1-.1-.1c-.2.1-.2.2 0 .3zM3.6 17.2c-.1 0-.1 0 0 0-.1 0-.1 0 0 0-.1.1-.1.2-.1.2s.1 0 .1-.1h.1c0-.1-.1-.1-.1-.1zM4.2 18.3c-.1.1-.1.1 0 .2 0 0 .1.1.1 0v-.1c0-.1 0-.1-.1-.1zM2.1 18.4H2v.1l.1-.1c.1 0 .1 0 0 0zM1 17.8c0 .1 0 .2.1.2l-.1-.2zM3.1 16.8v.2c.1-.3.1-.3 0-.2 0-.1 0-.1 0 0zM1.5 18.2h-.1v.2s.1 0 .1-.1c.1 0 .1 0 0-.1zM1.8 18.3c0 .1 0 .2.1.2H2l-.1-.1c-.1-.2-.1-.2-.1-.1zM.2 17.1l.1.1s.1 0 .1-.1v-.2c-.2.1-.2.1-.2.2zM1.7 17.5s0-.1 0 0c0-.1 0-.1 0 0l-.1-.1v-.1s-.1 0-.1.1v.2-.1h.2zM1.2 21.3c0 .1 0 .1.1.1h.1v-.1c0-.1-.1-.1-.2 0 .1-.1 0 0 0 0zM1.5 18.7c0-.1 0-.1-.1-.2 0 0-.1 0-.1.1l.1.1c.1.1.1 0 .1 0zM.8 18.2c-.1.1-.1.2 0 .2h.1s.1 0 .1-.1v-.1H.8zM1.1 18.6l-.1.1v.1l.1.1s.1 0 .1-.1v-.1l-.1-.1c.1.1.1.1 0 0zM1.4 19.1h-.1v.2h.2l-.1-.2c0 .1 0 .1 0 0zM3.7 19.4v.1l.1.1c.1-.3.1-.3-.1-.2.1-.1 0 0 0 0zM.1 18.6c.1-.1.1-.1 0 0 .1-.1.1-.1.1-.2 0 0 0-.1-.1-.1v.3zM.9 15.9c.1 0 .1 0 .1-.1v-.1s-.1-.1-.1 0c-.1.1-.1.2 0 .2zM2.1 12v-.1H2l-.1.1c0 .1 0 .1.1.1 0 0 0-.1.1-.1zM5.4 20.3c-.1 0-.1 0-.2.1 0 0 0 .1.1.1l.1-.2zM-.1 17.6v.1-.1c.1 0 0 0 0 0zM.8 16c0 .1 0 .1 0 0-.1.1-.1.1-.1.2v.1s.1.1.2 0v-.1c0-.2 0-.2-.1-.2zM5.2 15.7l-.1.1v.1l.1.1h.1l-.1-.3c.1 0 .1 0 0 0zM3.6 16.4l-.1-.1s-.1 0-.1.1c0 0 0 .1.1.1 0 0 .1 0 .1-.1zM2 17.3v.1l-.1-.1H2zM2.8 17.8v-.1s0-.1-.1-.1h.1c-.1.2-.1.2 0 .2zM1.1 16.6c0 .1 0 .1 0 0v.2l.1-.1c0-.1 0-.1-.1-.1zM2 16.9v.1h.2v-.1H2zM1.5 16.8v.1h.2l-.1-.1c0-.1-.1-.1-.1 0zM.7 16.9c.1 0 .1-.1 0 0 .1-.1.1-.2.1-.2l-.1.2zM5.3 17.4c-.1.1-.1.1 0 0 0 .1 0 .2.1.2 0 0 .1 0 .1-.1v-.1h-.2zM1.5 16.3v.1s0 .1.1.1v-.1s0-.1-.1-.1zM2.4 17.1h.1V17l-.1-.1v.2c0-.1 0-.1 0 0zM2.8 12.3v.1-.1s0-.1-.1-.1c.2.1.1.1.1.1zM.5 13.5v.2-.2zM.3 16.1V16v.1s0 .1.1.1l-.1-.1zM.4 20.6l-.1.1h.1v-.1h.1c0 .1 0 0-.1 0zM4.7 16.5v.1h.1s.1 0 .1-.1c0 0 0-.1-.1-.1 0 .1-.1.1-.1.1zM3.7 17.6c-.1 0-.2 0-.2.1h.2s.1 0 .1-.1h-.1zM.6 18c0-.1-.1-.1-.1-.1s-.1 0-.1.1v.1c.1 0 .1 0 .2-.1 0 .1 0 0 0 0zM3.1 19.3c0-.1-.1-.1-.1-.1 0 .1 0 .1.1.1zM1 15.1c0 .1 0 .1.1.2h.1s.1 0 .1-.1v-.1H1zM3.9 16.6h-.1.1c.1.1.1.1 0 0zM2.8 17.8c-.1 0-.1 0-.1.1v.1l.1-.2c.1 0 0 0 0 0zM2.9 17.4s-.1 0 0 0l-.1.1h.1v-.1c.1 0 .1 0 0 0 0-.1 0-.1 0 0zM4.4 16.7h-.1l.1.1c.2 0 .1-.1 0-.1zM1.9 19.3v.1h.2c-.1-.2-.1-.2-.2-.1zM.9 14.3c0 .1 0 .1.1.1 0 0 .1 0 .1-.1v-.1l-.2.1zM2.2 15.2v.1s.1.1.1 0c0 0 .1 0 .1-.1l-.1-.1c0 .1-.1.1-.1.1zM2.6 18.9c0 .1 0 .1 0 0l.1.1v-.2s-.1 0-.1.1zM5 14.9c-.1 0-.1 0 0 0-.1.1-.1.2 0 .2h.2l-.2-.2zM.5 19c.1-.1.1-.2.1-.2-.2.1-.2.1-.1.2zM1.7 20.1v.1h.1c0-.2-.1-.1-.1-.1zM2.6 20l-.1.1h.1c.1 0 .1-.1 0-.1zM.6 19.4H.5c0 .1 0 .1.1.2v-.2zM1.9 13.7v-.1h-.2c0 .2.1.2.2.1-.1.1 0 0 0 0zM3.5 11.3s-.1 0 0 0c-.1 0-.1 0 0 0l-.1.1.1.1s.1 0 .1-.1v-.1c-.1-.1-.1-.1-.1 0zM3.3 14.1v.1h.1c.1-.2 0-.2-.1-.1zM1.7 14.6v-.1h-.2c0 .1.1.1.2.1zM3.3 15.4l-.1.1c.2 0 .2 0 .1-.1zM2 14.7c-.1.1-.1.1 0 0l-.1.1v.1s0 .1.1.1v-.1c.1-.2 0-.2 0-.2zM2 14.6c0-.1-.1-.1-.1-.1h-.1l.2.1zM4 13v.2h.1C4 12.9 4 13 4 13zM3.9 14.5c-.1 0-.1 0-.2.1.3 0 .3 0 .2-.1zM.8 13c.1 0 .1 0 .1-.1v-.1s0-.1-.1-.1c-.1.2-.1.3 0 .3zM2.8 14.1l-.1-.1s-.1 0-.1.1c0 0 0 .1.1.1s.1 0 .1-.1zM3.1 13.2H3v.1c.1.1.1 0 .1-.1.1.1.1.1 0 0zM.5 15.1V15l-.1-.1c0 .2 0 .2.1.2zM1.5 15.6c.1 0 .1 0 .1-.1v-.1l-.1-.1c-.1.2-.1.2 0 .3-.1 0-.1 0 0 0zM2.4 15.9c-.1 0-.1 0 0 0l-.1-.1-.1.1v.1h.1c0 .1 0 .1.1-.1 0 .1 0 .1 0 0zM4 15.9h-.1c.2.1.2 0 .1 0zM1.4 13.2h.2c0-.2-.1-.2-.2-.2v.2zM2 16.2l-.1-.1s-.1 0-.1.1c0 0 0 .1.1.1H2v-.1zM.3 14.4h.1v-.1s0-.1-.1-.1v.2c-.1 0 0 0 0 0zM1.9 15.9v-.1.1zM2 15.6c.1 0 .1 0 0 0 .1-.1.1-.1.1-.2 0 0 0-.1-.1-.1V15.6zM1.7 15.8v-.1l-.1-.1s-.1 0-.1.1l.2.1c-.1.1 0 .1 0 0zM1 15.5v-.1.1c-.1.1-.1.1 0 0zM2.8 15.8h-.1c0 .1 0 .1.1.2v-.1c.1-.1 0-.1 0-.1zM2.8 15.4c.1-.1.1-.1.1-.2l-.1-.1s-.1 0-.1.1v.1c-.1 0 0 0 .1.1-.1 0 0 0 0 0zM1.3 13.9v-.2h-.2v.2h.2zM4.4 14.4c-.1 0-.1 0 0 0l-.1.1s0 .1.1.1v-.2zM4.3 15.7v.1h.2c0-.2-.1-.2-.2-.1.1-.1 0-.1 0 0zM6.2 14.8c0 .1 0 .1 0 0 0 .1 0 .2.1.2v-.1c.1-.1 0-.1-.1-.1.1 0 0 0 0 0zM2.1 13.3v.1s-.1-.1-.1 0l.1-.1zM4.7 13.9s0 .1 0 0v.1c.1-.1 0-.1 0-.1zM1.9 15.2v-.1.1c0 .1 0 .1 0 0zM3.2 15c-.1.1-.1.1-.1.2 0 0 0 .1.1.1v-.1c.1-.2.1-.2 0-.2zM.1 11.8c-.1-.1-.1-.1-.1 0 0 0-.1 0-.1.1l.2-.1c.1.1.1.1 0 0zM1.4 20.4l-.1-.1h-.1v.1h.2zM3.3 21.2c-.1.1-.1.2-.1.2s.1 0 .1-.1c.1 0 .1 0 0-.1.1 0 .1 0 0 0zM1.1 17.5c0-.1 0-.1 0 0l.1-.1-.1-.1v.1c-.1.1 0 .1 0 .1zM.7 17.3c-.1-.1-.1-.1-.2-.1l.2.1c0 .1 0 .1 0 0zM1.6 17.8h-.1v.1l.1.1c.1-.1 0-.2 0-.2zM3.2 18.5c0 .1 0 .1.1.1h.1v-.1l-.1-.1s-.1 0-.1.1zM2.8 19.9v.1l.1.1.1-.1v-.1h-.2zM7 21.5v.1h.1v-.1l-.1-.1c.1 0 0 0 0 .1zM1.9 20.4c.1 0 .1 0 .1-.1-.2 0-.2.1-.1.1zM4.2 20.1c.1 0 .1-.1.1-.1v-.1l-.1-.1c-.1.2-.1.3 0 .3z"/><path class="st236" d="M2 19.5c.1-.1.1-.1 0 0 .1-.1.1-.2.1-.2H2c-.1 0-.1.1 0 .2zM5.2 20.4c-.1.1-.1.2-.1.2s.1 0 .1-.1l.1-.1c0-.1 0-.1-.1 0zM6.1 21.4c-.1 0-.1 0 0 0-.1.1 0 .2 0 .2h.1v-.1c0-.2-.1-.2-.1-.1zM1 17.8v-.1H.9c-.1.1 0 .1.1.1zM4.1 21.8c-.2.1-.1.2-.1.2l.1-.2zM2.8 21.4c0 .1 0 .1 0 0 0 .1.1.1.1.1l-.1-.1zM4.7 20.1c0 .1 0 .1.1.1v-.1c0-.1 0-.1-.1 0 0-.1 0-.1 0 0zM3.5 21.8h-.1c0 .1 0 .1.1.1 0 0 .1 0 .1-.1-.1.1-.1 0-.1 0zM.9 21H.8v.1h.1V21zM3.7 21.8c0 .1.1.1.1.1.1 0 .1 0 .1-.1l-.1-.1c-.1 0-.1 0-.1.1zM.5 21.7l.1-.1v-.1l-.1-.1c-.2.2-.1.3 0 .3zM1.9 20.9l.1.1s.1 0 .1-.1 0-.1-.1-.1c0 0-.1 0-.1.1zM3.5 21c-.1-.1-.1-.1 0 0l-.1-.1v-.1s-.1 0-.1.1l.1.1v-.1c.1.2.1.1.1.1zM3.5 22.2c0-.1 0-.1-.1-.1l-.1.1.1.1c.1 0 .1 0 .1-.1zM2.8 21.9c-.1.1 0 .2 0 .2h.1L3 22s0-.1-.1-.1h-.1zM3.1 22.3l-.1.1h.1s.1 0 .1-.1v-.1c0 .1 0 .1-.1.1zM3.5 22.7h-.1c0 .1 0 .1.1.2h.2l-.2-.2zM5.8 22.5v.1h.1c.1-.2 0-.2-.1-.1zM0 23.1v-.2.2zM.9 22l.1-.1c-.1 0-.1 0-.1.1zM1.8 23.1v.1c.1 0 .1 0 .1-.1V23c0 .1-.1.1-.1.1zM2.1 22.4c.1-.1.1-.1 0 0 .1-.1.1-.2.1-.2h-.1v.2zM2.4 19.6c.1 0 .1 0 .1-.1v-.1h-.1c-.1.2-.1.2 0 .2zM2.8 15.5v-.1h-.1l-.1.1c0 .1.1.1.1.1.1 0 .1 0 .1-.1zM7.6 23.1c-.1 0-.1 0-.1.1l.1.1v-.2zM1.7 21.5v.1-.1c.1-.1.1-.1 0 0zM2.3 19.7c0 .1 0 .1 0 0-.1.1 0 .2 0 .2s0 .1.1.1h.2v-.1c-.2-.2-.2-.2-.3-.2zM6.6 18.6c-.1.1-.1.2-.1.2h.1c.1 0 .1 0 .1-.1l-.1-.1c.1 0 .1 0 0 0zM5.1 19.6l-.1-.1s-.1 0-.1.1H5c.1.1.1.1.1 0zM3.7 20.8v.1l-.1-.1h.1c.1 0 .1 0 0 0zM4.6 21.1V21l-.1-.1h.1c-.1.2-.1.2 0 .2zM1.7 21.8c-.1 0-.2 0-.2.1v-.1c.2.1.2.1.2 0zM2.7 20.3v.2l.1-.1c0-.1 0-.1-.1-.1zM3.6 20.4v.1h.1s.1 0 .1-.1v-.1c-.1.1-.1.1-.2.1zM3.2 20.4l.1.1c.1 0 .1 0 .2-.1l-.1-.1c-.2 0-.2 0-.2.1zM2.4 20.6c.1 0 .1 0 0 0 .1-.1.1-.2 0-.2v.2zM7 20.3c-.1.1-.1.1 0 0 0 .1.1.1.1.2 0 0 .1 0 .1-.1v-.1c-.1-.1-.2-.1-.2 0zM.9 19.3c-.1.1-.1.1 0 0-.1.1-.1.1 0 .2l.1.1s.1 0 .1-.1c-.1-.2-.1-.2-.2-.2zM.3 19.5c.1 0 .1 0 0 0 .1-.1.1-.2 0-.2l-.1.1v.1h.1zM3.1 19.9v.1l.1.1V20s-.1 0-.1-.1zM.8 18.5s0 .1 0 0l.1.1v-.1H.8c.1-.2 0-.1 0 0zM4.1 20.5l.1-.1v-.1s-.1-.1-.1 0c-.1.1 0 .2 0 .2zM3.6 15.8s0 .1 0 0c0 .1.1.1.1.1v-.1l-.1-.1v.1zM1.5 17.3c0 .1 0 .1.1.2l-.1-.2zM1.9 19.9v-.1.1l.1.1-.1-.1zM-.1 18.2c0 .1 0 .1.1.1 0 0 .1 0 .1-.1-.1-.1-.2-.1-.2 0zM6.2 19.5v.1h.1l.1-.1-.1-.1c0 .1 0 .1-.1.1zM5.5 20.8c-.1 0-.1 0 0 0-.1 0-.2.1-.2.1h.2s.1 0 .1-.1h-.1zM1.4 23.4v-.1h-.1s-.1 0-.1.1h.2zM.4 17.2c0-.1.1-.1 0 0l.1-.2c-.1 0-.1 0-.1.1v.1zM2.5 21.7l-.1-.1s-.1 0-.1.1v.1c.1 0 .1 0 .2-.1 0 .1 0 .1 0 0zM5.2 22.6c0-.1-.1-.1 0 0l-.1-.1c0 .1 0 .1.1.1zM-.1 20.9H0s.1 0 .1-.1l-.1-.1-.1.2zM2.3 18.8c0 .1 0 .1.1.2h.1l.1-.1v-.1h-.3zM5.5 19.7l-.1.1c.1 0 .1-.1.1-.1.1.1.1.1 0 0zM1.2 20c0-.1-.1-.2-.1-.2s-.1 0-.1.1c.1.1.1.2.2.1zM4.6 21.1l-.1.1v.1-.1c.2 0 .1-.1.1-.1zM1.4 20.2c-.1 0-.1 0-.1.1.1 0 .1-.1.1-.1zM4.6 20.7l-.1.1h.1v-.1c.2 0 .1 0 0 0 .1 0 0 0 0 0zM-.1 22.1s-.1 0 0 0c-.1 0-.1 0-.1.1h.1c.1 0 .1 0 .1-.1 0 0-.1-.1-.1 0zM6 19.7c-.1 0-.1 0-.1.1H6c.1 0 .1 0 0-.1zM4 22.7v.1c.1 0 .1 0 .1-.1H4zM2.1 18c0 .1.1.1.1.1s.1 0 .1-.1v-.1l-.2.1zM3.6 18.7v.1h.1s.1 0 .1-.1l-.1-.1c-.1 0-.1.1-.1.1zM4.6 22.3l.1.1c0-.1 0-.1-.1-.1.1-.2 0-.2 0 0zM6.2 17.9c-.1 0-.1 0 0 0-.1.1-.1.2 0 .2s.1 0 .1-.1 0-.1-.1-.1zM2.5 22.7c.1-.1.1-.2.1-.2-.2.1-.2.2-.1.2zM4 23.6v.1-.1zM1.2 20.9h.1v-.1l-.1-.1v.2zM4.8 23.3l-.1.1h.1c.1 0 .1-.1 0-.1zM2.7 23.1c-.1.1-.1.2 0 .2.1-.2 0-.2 0-.2zM1.1 22.9l.1-.1v.2l-.1-.1zM2.9 17.3v-.1c-.1 0-.1 0-.2.1.1 0 .1.1.2 0zM4.1 14.6s-.1 0 0 0c-.1.1-.1.1 0 0l-.1.1h.1s.1 0 .1-.1v-.1c-.1 0-.1.1-.1.1zM4.4 17.4v.1h.1c.1-.2 0-.2-.1-.1zM2.9 18.2v-.1h-.1c-.1 0-.1 0-.1.1.1 0 .1.1.2 0zM4.7 18.7c-.1 0-.1 0 0 0l-.1.1c.2 0 .2-.1.1-.1zM3.2 18.2l-.1.1v.1h.1c.2-.1.2-.2 0-.2.1 0 .1 0 0 0zM1.1 19s.1-.1 0 0l.1-.1h-.1s-.1 0-.1.1c-.1-.1 0-.1.1 0zM3.3 18.1c-.1-.1-.1-.1-.2-.1 0 0-.1 0-.1.1h.3zM4.9 16.2c0 .1 0 .1.1.2h.1c-.2-.3-.2-.2-.2-.2zM5.1 17.7c-.1 0-.1.1-.1.1.2 0 .1-.1.1-.1zM1.8 16.8c.1-.1.1-.1 0 0 .1-.1.1-.1.1-.2l-.1-.1c-.2.2-.2.3 0 .3zM3.9 17.5h-.1s-.1 0-.1.1h.1v-.1c.1.1.2.1.1 0zM4.1 16.6c0-.1 0-.1 0 0H4v.1c.1 0 .1 0 .1-.1zM1.9 18.9v-.1h-.1c0 .1 0 .1.1.1zM2.9 19.2H3v-.1h-.1c-.1 0-.1 0 0 .1-.1 0 0 0 0 0zM3.8 19.4s0-.1 0 0h-.1v.2h.1v-.2c.1.1 0 0 0 0zM5.5 19l-.1.1c.2 0 .1-.1.1-.1zM2.4 16.8c.1 0 .1 0 .1-.1s-.1-.1-.2 0c0 .1.1.1.1.1zM3.6 19.7l-.1-.1s-.1 0-.1.1c0 0 0 .1.1.1h.1v-.1zM1.6 18.3c.1-.1.1-.1 0 0 .1-.1.1-.2.1-.2l-.1-.1V18.3c-.1-.1-.1 0 0 0zM3.4 19.4c0-.1 0-.1-.1-.1l.1.1c0 .1 0 .1 0 0zM3.4 19.1c.1 0 .1 0 0 0 .1-.1.1-.1 0-.2l-.1-.1v.1l.1.2z"/><path class="st236" d="M3.1 19.4v-.1l-.1-.1s-.1 0-.1.1l.2.1c0 .1 0 .1 0 0zM2.4 19.2c0-.1 0-.1-.1-.1l.1.1c-.1.1 0 .1 0 0zM4.2 19.1l-.1.1c0 .1 0 .1.1.2v-.1c.1-.1.1-.1 0-.2zM4.1 18.7c.1-.1.1-.1 0-.2l-.1-.1s-.1 0-.1.1v.1c.1.1.1.1.2.1 0 .1 0 0 0 0zM2.4 17.5v-.1h-.2v.2h.2zM5.6 17.5c-.1 0-.1 0 0 0l-.1.1h.1v-.1zM5.7 18.8l.1.1c.1 0 .1 0 .2-.1-.1-.1-.2-.1-.3 0 0-.1 0-.1 0 0zM7.4 17.6s0 .1 0 0c0 .1.1.1.1.2v-.1c.1-.2 0-.2-.1-.1.1-.1 0 0 0 0zM3.1 16.9v.1c.1-.2.1-.2 0-.1 0-.1 0-.1 0 0zM5.7 17v.1c.1-.2.1-.2 0-.1zM3.2 18.8l-.1-.1v.1h.1zM4.5 18.3c-.1.1-.1.1-.1.2l.1.1v-.1c.1-.2.1-.2 0-.2zM.9 15.7H.8s-.1 0-.1.1l.2-.1c0 .1 0 .1 0 0zM3.7 23.9l-.1-.1h-.1v.1h.2c0 .1 0 .1 0 0zM2.9 21.1V21s-.1 0-.1-.1v.1c0 .2 0 .1.1.1zM2.4 21c-.1-.1-.1-.1-.2-.1l.2.1c0 .1 0 .1 0 0zM3.4 21.3l-.1.1v.1h.1c.1-.1.1-.1 0-.2zM5.1 21.7c0 .1.1.1.1.1h.1v-.1l-.1-.1-.1.1z"/></g></g><circle class="st2" cx="8.1" cy="10.6" r=".8"/><circle class="st2" cx="15.9" cy="10.6" r=".8"/><path class="st2" d="M10.3 13c-.4 0-.7.4-.6.8.3.9 1.2 1.5 2.2 1.5s1.9-.6 2.2-1.5c.2-.4-.1-.8-.6-.8h-3.2z"/></svg>